Coordinates
version=1
nRows=18
nColumns=63
inDegrees=yes

Units are S.I. units (second, meters, Newtons, ...)
If the header above contains a line with 'inDegrees', this indicates whether rotational values are in degrees (yes) or radians (no).

endheader
time	pelvis_tilt	pelvis_list	pelvis_rotation	pelvis_tx	pelvis_ty	pelvis_tz	hip_flexion_r	hip_adduction_r	hip_rotation_r	knee_angle_r	knee_angle_r_beta	ankle_angle_r	subtalar_angle_r	mtp_angle_r	hip_flexion_l	hip_adduction_l	hip_rotation_l	knee_angle_l	knee_angle_l_beta	ankle_angle_l	subtalar_angle_l	mtp_angle_l	L5_S1_Flex_Ext	L5_S1_Lat_Bending	L5_S1_axial_rotation	L4_L5_Flex_Ext	L4_L5_Lat_Bending	L4_L5_axial_rotation	L3_L4_Flex_Ext	L3_L4_Lat_Bending	L3_L4_axial_rotation	L2_L3_Flex_Ext	L2_L3_Lat_Bending	L2_L3_axial_rotation	L1_L2_Flex_Ext	L1_L2_Lat_Bending	L1_L2_axial_rotation	L1_T12_Flex_Ext	L1_T12_Lat_Bending	L1_T12_axial_rotation	Abs_r3	Abs_r2	Abs_r1	Abs_t1	Abs_t2	neck_flexion	neck_bending	neck_rotation	arm_flex_r	arm_add_r	arm_rot_r	elbow_flex_r	pro_sup_r	wrist_flex_r	wrist_dev_r	arm_flex_l	arm_add_l	arm_rot_l	elbow_flex_l	pro_sup_l	wrist_flex_l	wrist_dev_l
1.233333	-0.468704	4.530706	119.905841	0.286917	0.568989	0.923506	-4.417945	-3.025542	-22.825318	13.868068	0.242043	32.661791	12.714840	0.000000	-7.007007	2.785598	0.671529	3.131405	0.054653	28.510448	11.307741	0.000000	-0.233586	0.550144	0.539712	-0.433792	0.731692	0.573445	-0.383758	1.337621	0.573445	-0.266965	1.337621	0.472248	-0.216908	1.121854	0.438516	-0.133471	0.852173	0.404784	-1.668479	6.223341	3.001719	0.000000	0.000000	21.057240	-8.308910	10.165877	-1.179209	-16.037050	131.460659	0.695756	2.155657	-5.833854	-9.903370	33.815143	-24.948906	-38.794637	140.186686	82.734452	-11.824816	8.479487
1.250000	-0.376638	4.527540	120.243422	0.286776	0.568925	0.923469	-4.532951	-2.879468	-23.418194	13.632477	0.237932	32.656096	13.120354	0.000000	-7.109130	2.675195	1.849274	2.776061	0.048451	28.285057	10.354983	0.000000	-0.224146	0.551539	0.496071	-0.416261	0.733547	0.527076	-0.368249	1.341011	0.527076	-0.256176	1.341011	0.434063	-0.208142	1.124698	0.403058	-0.128077	0.854334	0.372054	-1.601049	6.239117	2.759001	0.000000	0.000000	21.460776	-7.809743	9.991626	-1.060984	-16.089947	131.929452	0.718940	2.318844	-5.741075	-9.778790	34.066397	-24.673625	-40.725401	139.503361	83.725284	-10.110142	10.894793
1.266667	-0.297137	4.508188	120.569433	0.286812	0.568786	0.923477	-4.644809	-2.737785	-23.946496	13.379073	0.233509	32.617859	13.441954	0.000000	-7.181213	2.569712	2.981534	2.464051	0.043006	28.048529	9.436143	0.000000	-0.213509	0.547466	0.453316	-0.396508	0.728130	0.481648	-0.350774	1.331109	0.481648	-0.244020	1.331109	0.396652	-0.198265	1.116393	0.368319	-0.121999	0.848025	0.339987	-1.525074	6.193045	2.521208	0.000000	0.000000	21.854161	-7.283138	9.747669	-0.870610	-16.124175	132.992093	0.745134	2.519266	-5.551573	-9.470856	34.497445	-24.396190	-42.576819	138.995646	84.659906	-8.383781	12.793980
1.283333	-0.225699	4.474853	120.879394	0.286975	0.568581	0.923563	-4.748373	-2.605255	-24.437592	13.119343	0.228976	32.547408	13.713667	0.000000	-7.222955	2.472545	4.183712	2.199553	0.038389	27.761210	8.365073	0.000000	-0.201627	0.539827	0.411571	-0.374441	0.717970	0.437294	-0.331253	1.312536	0.437294	-0.230439	1.312536	0.360125	-0.187231	1.100815	0.334402	-0.115210	0.836192	0.308678	-1.440201	6.106633	2.289036	0.000000	0.000000	22.239635	-6.769289	9.452087	-0.614867	-16.152738	134.510002	0.780054	2.743226	-5.244652	-9.011936	35.069771	-24.079233	-44.372353	138.689084	85.537356	-6.657039	14.255842
1.300000	-0.150950	4.442712	121.150984	0.287274	0.568337	0.923719	-4.845377	-2.464804	-24.884709	12.857267	0.224402	32.437632	13.932197	0.000000	-7.242029	2.366575	5.405537	1.986336	0.034668	27.440700	7.175147	0.000000	-0.190476	0.531359	0.376464	-0.353734	0.706707	0.399993	-0.312934	1.291946	0.399993	-0.217696	1.291946	0.329406	-0.176876	1.083547	0.305877	-0.108838	0.823075	0.282348	-1.360555	6.010839	2.093782	0.000000	0.000000	22.618627	-6.313953	9.121367	-0.306178	-16.189023	136.366198	0.817707	2.937846	-4.780248	-8.443329	35.726947	-23.724573	-46.017320	138.548629	86.245738	-5.030251	15.182461
1.316667	-0.061955	4.394192	121.366318	0.287682	0.568054	0.923944	-4.900591	-2.323455	-25.255270	12.613678	0.220150	32.295626	14.080720	0.000000	-7.211761	2.257490	6.601639	1.835243	0.032031	27.084101	5.890305	0.000000	-0.178103	0.523736	0.342973	-0.330755	0.696569	0.364409	-0.292605	1.273413	0.364409	-0.203554	1.273413	0.300102	-0.165386	1.068003	0.278666	-0.101768	0.811268	0.257230	-1.272172	5.924611	1.907514	0.000000	0.000000	22.988661	-5.910162	8.869448	0.061072	-16.240789	138.439706	0.858099	3.111438	-4.212460	-7.800347	36.342172	-23.400448	-47.488912	138.583357	86.724960	-3.646569	15.740222
1.333333	0.009191	4.322528	121.522484	0.288228	0.567747	0.924185	-4.925281	-2.213225	-25.546932	12.386960	0.216193	32.143279	14.174693	0.000000	-7.139176	2.173642	7.667170	1.752627	0.030589	26.708826	4.652364	0.000000	-0.165538	0.512854	0.317557	-0.307421	0.682095	0.337405	-0.271962	1.246953	0.337405	-0.189193	1.246953	0.277863	-0.153719	1.045811	0.258015	-0.094588	0.794410	0.238168	-1.182422	5.801504	1.766159	0.000000	0.000000	23.313319	-5.585491	8.652440	0.460597	-16.284993	140.661402	0.892512	3.266687	-3.603747	-7.113677	36.868602	-23.184797	-48.539760	138.649417	87.004887	-2.745397	15.694981
1.350000	0.073143	4.227148	121.634081	0.288859	0.567422	0.924442	-4.909682	-2.124709	-25.740640	12.188074	0.212722	31.979785	14.172532	0.000000	-7.022091	2.110067	8.629168	1.725723	0.030120	26.321672	3.454133	0.000000	-0.152427	0.500938	0.291584	-0.283072	0.666247	0.309808	-0.250422	1.217980	0.309808	-0.174208	1.217980	0.255136	-0.141543	1.021512	0.236912	-0.087097	0.775952	0.218688	-1.088769	5.666705	1.621704	0.000000	0.000000	23.586849	-5.345770	8.523194	0.913580	-16.326795	143.136013	0.913540	3.490966	-3.001484	-6.406218	37.191641	-23.131624	-49.216827	138.706285	87.126564	-2.179957	15.328398
1.366667	0.121789	4.127681	121.696668	0.289552	0.567127	0.924684	-4.880832	-2.055409	-25.844976	12.010638	0.209625	31.804471	14.088152	0.000000	-6.891233	2.064960	9.434204	1.737516	0.030325	25.938028	2.374839	0.000000	-0.143401	0.488772	0.264692	-0.266310	0.650066	0.281235	-0.235593	1.188400	0.281235	-0.163893	1.188400	0.231605	-0.133162	0.996703	0.215062	-0.081939	0.757107	0.198519	-1.024297	5.529084	1.472136	0.000000	0.000000	23.826605	-5.178637	8.475244	1.413577	-16.365499	145.703206	0.928461	3.787413	-2.528509	-5.736146	37.240014	-23.273956	-49.526968	138.707315	87.078733	-1.776944	14.771689
1.383333	0.161315	4.003908	121.729583	0.290239	0.566843	0.924888	-4.820760	-2.014875	-25.898088	11.859764	0.206992	31.631236	13.955915	0.000000	-6.727959	2.042709	10.055439	1.776901	0.031013	25.574148	1.487159	0.000000	-0.135123	0.475993	0.225951	-0.250936	0.633071	0.240073	-0.221993	1.157330	0.240073	-0.154432	1.157330	0.197707	-0.125475	0.970646	0.183585	-0.077209	0.737314	0.169463	-0.965167	5.384532	1.256671	0.000000	0.000000	24.039247	-5.065145	8.527402	1.969627	-16.389262	148.539689	0.934150	4.169626	-2.312583	-5.113218	36.898709	-23.657048	-49.472541	138.720657	86.941988	-1.889797	14.421384
1.400000	0.204500	3.862350	121.726768	0.290894	0.566577	0.925052	-4.724874	-1.996503	-25.928289	11.745538	0.204998	31.469409	13.831173	0.000000	-6.529971	2.031727	10.455764	1.843478	0.032175	25.258767	0.840580	0.000000	-0.127565	0.464099	0.174613	-0.236902	0.617251	0.185527	-0.209577	1.128410	0.185527	-0.145794	1.128410	0.152787	-0.118457	0.946390	0.141873	-0.072891	0.718889	0.130960	-0.911186	5.249977	0.971147	0.000000	0.000000	24.236563	-4.981885	8.634685	2.585982	-16.402593	151.599285	0.928816	4.609818	-2.244065	-4.556274	36.136961	-24.229234	-49.140538	138.751134	86.993303	-2.345802	14.474462
1.416667	0.250506	3.704752	121.706670	0.291481	0.566329	0.925192	-4.594732	-1.998556	-25.936469	11.669424	0.203670	31.321599	13.691106	0.000000	-6.307966	2.032553	10.691777	1.913560	0.033398	24.979513	0.397973	0.000000	-0.120673	0.453185	0.113074	-0.224103	0.602736	0.120141	-0.198254	1.101873	0.120141	-0.137918	1.101873	0.098940	-0.112057	0.924134	0.091873	-0.068953	0.701983	0.084806	-0.861959	5.126516	0.628885	0.000000	0.000000	24.428575	-4.911377	8.779181	3.219763	-16.399897	154.574720	0.916658	5.071977	-2.309151	-4.112119	34.969093	-24.917110	-48.494649	138.729468	86.979578	-3.069786	14.660506
1.433333	0.312611	3.542491	121.665214	0.291990	0.566102	0.925351	-4.430284	-2.007804	-25.935298	11.629978	0.202981	31.192198	13.574099	0.000000	-6.059702	2.033019	10.788901	1.996586	0.034847	24.751080	0.125086	0.000000	-0.114351	0.445510	0.047970	-0.212361	0.592528	0.050968	-0.187867	1.083212	0.050968	-0.130691	1.083212	0.041973	-0.106186	0.908484	0.038975	-0.065340	0.690095	0.035977	-0.816795	5.039696	0.266793	0.000000	0.000000	24.617657	-4.860567	8.915210	3.840426	-16.394353	157.292158	0.900328	5.438994	-2.386636	-3.810974	33.432950	-25.601302	-47.551346	138.596992	86.788956	-3.810254	14.871086
1.450000	0.381707	3.386769	121.572926	0.292470	0.565900	0.925540	-4.229786	-2.029560	-25.874404	11.642134	0.203194	31.102075	13.467517	0.000000	-5.801002	2.038570	10.690181	2.095625	0.036576	24.591687	0.061637	0.000000	-0.109872	0.440291	-0.003216	-0.204044	0.585587	-0.003417	-0.180509	1.070523	-0.003417	-0.125573	1.070523	-0.002814	-0.102027	0.897841	-0.002613	-0.062781	0.682010	-0.002412	-0.784807	4.980656	-0.017888	0.000000	0.000000	24.778987	-4.868979	8.932967	4.389796	-16.384590	159.404399	0.876927	5.716048	-2.427172	-3.640520	31.594854	-26.184360	-46.178846	138.309676	86.493061	-4.740207	15.114545
1.466667	0.472556	3.238538	121.497071	0.292840	0.565728	0.925843	-3.996217	-2.047271	-25.832237	11.694407	0.204106	31.051573	13.406130	0.000000	-5.527242	2.034809	10.642188	2.198046	0.038363	24.454682	-0.025431	0.000000	-0.105214	0.440781	-0.059802	-0.195393	0.586239	-0.063539	-0.172856	1.071715	-0.063539	-0.120249	1.071715	-0.052327	-0.097702	0.898841	-0.048589	-0.060119	0.682770	-0.044851	-0.751532	4.986204	-0.332600	0.000000	0.000000	24.937645	-4.907505	9.021371	4.888343	-16.386647	160.787538	0.860195	5.860277	-2.265839	-3.541036	29.455041	-26.590505	-44.589265	137.835203	86.267325	-5.204157	15.569055
1.483333	0.579519	3.108494	121.391548	0.293208	0.565579	0.926247	-3.727497	-2.055085	-25.725092	11.792210	0.205813	31.056068	13.364578	0.000000	-5.244396	2.019766	10.480069	2.326022	0.040597	24.380976	0.005482	0.000000	-0.102538	0.445393	-0.101635	-0.190423	0.592373	-0.107987	-0.168460	1.082929	-0.107987	-0.117191	1.082929	-0.088930	-0.095217	0.908246	-0.082578	-0.058590	0.689914	-0.076226	-0.732419	5.038378	-0.565262	0.000000	0.000000	25.088253	-5.011063	9.013251	5.278165	-16.388460	161.118221	0.840918	5.885627	-1.985638	-3.534074	27.094301	-26.807726	-42.583968	137.110770	86.134438	-5.539798	16.249150
1.500000	0.709218	2.977449	121.288470	0.293524	0.565421	0.926810	-3.406075	-2.064634	-25.612903	11.934438	0.208295	31.123829	13.393183	0.000000	-4.935030	1.998466	10.202448	2.468895	0.043090	24.353596	0.193654	0.000000	-0.098633	0.455014	-0.146306	-0.183171	0.605168	-0.155450	-0.162044	1.106321	-0.155450	-0.112728	1.106321	-0.128018	-0.091591	0.927864	-0.118873	-0.056359	0.704816	-0.109729	-0.704526	5.147207	-0.813709	0.000000	0.000000	25.214218	-5.138770	9.091591	5.599833	-16.402521	160.428277	0.833465	5.790061	-1.503573	-3.612283	24.491775	-26.790183	-40.271779	136.105781	86.093543	-5.596822	17.278257
1.516667	0.858953	2.861996	121.177716	0.293846	0.565256	0.927534	-3.040782	-2.061407	-25.461509	12.130782	0.211722	31.249839	13.453096	0.000000	-4.616225	1.966549	10.188265	2.633204	0.045958	24.300917	-0.016582	0.000000	-0.096422	0.469195	-0.191784	-0.179065	0.624029	-0.203771	-0.158411	1.140800	-0.203771	-0.110200	1.140800	-0.167811	-0.089537	0.956782	-0.155825	-0.055095	0.726783	-0.143838	-0.688730	5.307624	-1.066647	0.000000	0.000000	25.310794	-5.295805	9.186973	5.872808	-16.419857	159.310638	0.793276	5.546389	-0.982187	-3.714627	21.705625	-26.642394	-37.576998	134.732309	86.168548	-5.513455	18.494559
